<?xml version="1.0" encoding="utf-8"?>
<!-- Generator: Adobe Illustrator 26.5.0, SVG Export Plug-In . SVG Version: 6.00 Build 0)  -->
<svg version="1.1" id="LHG_Digital_Hangar" xmlns="http://www.w3.org/2000/svg" xmlns:xlink="http://www.w3.org/1999/xlink" x="0px"
	 y="0px" viewBox="0 0 155.91 27.49" style="enable-background:new 0 0 155.91 27.49;" xml:space="preserve">
<style type="text/css">
	.st0{fill:#05164D;}
</style>
<g>
	<g>
		<path class="st0" d="M135.25,0.24v6.92c0,2.76,1.54,4.67,5.03,4.67c3.47,0,5.01-1.91,5.01-4.67V0.24h-2.63V7
			c0,1.73-0.79,2.5-2.38,2.5c-1.61,0-2.4-0.76-2.4-2.5V0.24H135.25z"/>
		<path class="st0" d="M110.44,5.48h-4.69v2.29h2.06V8.8c-0.55,0.41-1.33,0.7-2.56,0.7c-2.27,0-3.24-1.2-3.24-3.58
			c0-2.38,0.99-3.58,3.15-3.58c1.57,0,2.25,0.37,2.61,1.49h2.76C110.21,1.51,108.66,0,105.16,0c-4.12,0-5.87,2.35-5.87,5.92
			c0,3.57,1.75,5.92,5.95,5.92c2.43,0,4.28-0.97,5.2-1.85V5.48z"/>
		<path class="st0" d="M83.85,3.58C83.62,1.17,82.18,0,79.24,0c-3.16,0-4.59,1.51-4.59,3.55c0,2.16,1.2,3.13,3.29,3.39l1.61,0.19
			c1.43,0.18,1.8,0.55,1.8,1.2c0,0.78-0.58,1.22-2.16,1.22c-1.88,0-2.22-0.73-2.32-1.65H74.2c0.18,2.4,1.41,3.94,4.99,3.94
			c3.18,0,4.86-1.25,4.86-3.66c0-2.25-1.3-3.31-3.68-3.6l-1.61-0.19c-1.05-0.13-1.41-0.41-1.41-1.01c0-0.62,0.42-1.14,1.88-1.14
			c1.41,0,1.8,0.55,1.93,1.35H83.85z"/>
		<polygon class="st0" points="70.48,7.28 65.12,0.24 62.65,0.24 62.65,11.59 65.28,11.59 65.28,4.56 70.65,11.59 73.11,11.59 
			73.11,0.24 70.48,0.24 		"/>
		<path class="st0" d="M152.11,0.24h-5.25v11.35h2.63V7.51h2.63c2.51,0,3.79-1.49,3.79-3.63C155.91,1.56,154.61,0.24,152.11,0.24
			 M151.69,5.22h-2.2V2.53h2.2c1.05,0,1.49,0.44,1.49,1.35C153.18,4.78,152.74,5.22,151.69,5.22"/>
		<path class="st0" d="M128.09,0c-4.2,0-5.92,2.51-5.92,5.92c0,3.4,1.72,5.92,5.92,5.92c4.2,0,5.92-2.51,5.92-5.92
			C134.01,2.51,132.29,0,128.09,0 M128.09,9.5c-2.21,0-3.19-1.3-3.19-3.58c0-2.29,0.99-3.58,3.19-3.58c2.2,0,3.19,1.3,3.19,3.58
			C131.28,8.2,130.29,9.5,128.09,9.5"/>
		<path class="st0" d="M121.24,9.94c-0.26-1.72-0.91-2.74-1.85-3.31c1.23-0.49,1.83-1.49,1.83-2.85c0-2.16-1.28-3.53-3.94-3.53h-5.3
			v11.35h2.63V7.51h1.62c1.39,0,2.11,0.91,2.35,2.66l0.19,1.43h2.71L121.24,9.94z M116.96,5.22h-2.35V2.53h2.35
			c1.04,0,1.54,0.44,1.54,1.35C118.5,4.78,118,5.22,116.96,5.22"/>
		<path class="st0" d="M91.65,0.24h-3.21l-4.12,11.35h2.87l0.62-1.91h4.46l0.63,1.91h2.87L91.65,0.24z M88.54,7.46l1.51-4.56
			l1.49,4.56H88.54z"/>
		<path class="st0" d="M57.68,0.24h-3.21l-4.12,11.35h2.87l0.62-1.91h4.46l0.63,1.91h2.87L57.68,0.24z M54.57,7.46l1.51-4.56
			l1.49,4.56H54.57z"/>
		<polygon class="st0" points="41.85,4.75 41.85,0.24 39.22,0.24 39.22,11.59 41.85,11.59 41.85,7.04 46.73,7.04 46.73,11.59 
			49.36,11.59 49.36,0.24 46.73,0.24 46.73,4.75 		"/>
		<polygon class="st0" points="32.27,2.53 32.27,11.59 34.89,11.59 34.89,2.53 38.07,2.53 38.07,0.24 29.09,0.24 29.09,2.53 		"/>
		<polygon class="st0" points="22.69,11.59 22.69,7.3 27.65,7.3 27.65,5.01 22.69,5.01 22.69,2.53 27.94,2.53 27.94,0.24 
			20.06,0.24 20.06,11.59 		"/>
		<path class="st0" d="M8.44,0.24v6.92c0,2.76,1.54,4.67,5.03,4.67c3.47,0,5.01-1.91,5.01-4.67V0.24h-2.63V7
			c0,1.73-0.79,2.5-2.38,2.5c-1.61,0-2.4-0.76-2.4-2.5V0.24H8.44z"/>
		<polygon class="st0" points="0,0.24 0,11.59 7.81,11.59 7.81,9.31 2.63,9.31 2.63,0.24 		"/>
	</g>
	<g>
		<path class="st0" d="M9.83,21.7c0,3.38-1.73,5.6-5.07,5.6H0V16.1h4.75C8.1,16.1,9.83,18.32,9.83,21.7z M8.61,21.7
			c0-2.93-1.5-4.51-3.99-4.51H1.17v9.03h3.46C7.11,26.21,8.61,24.63,8.61,21.7z"/>
		<path class="st0" d="M11.55,27.3V16.1h1.17v11.2H11.55z"/>
		<path class="st0" d="M14.43,21.7c0-3.38,1.67-5.79,5.46-5.79c2.66,0,4.43,1.09,4.8,3.31h-1.28c-0.43-1.68-1.65-2.19-3.52-2.19
			c-2.93,0-4.24,1.83-4.24,4.67c0,2.85,1.34,4.67,4.29,4.67c1.54,0,2.79-0.46,3.6-1.18v-2.62h-3.01v-1.09h4.18v4.23
			c-1.07,1.02-2.77,1.79-4.79,1.79C16.13,27.49,14.43,25.08,14.43,21.7z"/>
		<path class="st0" d="M26.56,27.3V16.1h1.17v11.2H26.56z"/>
		<path class="st0" d="M29.06,17.18V16.1h8.72v1.09H34V27.3h-1.17V17.18H29.06z"/>
		<path class="st0" d="M44.71,24.59h-5.73l-1.07,2.71h-1.25l4.56-11.2h1.25l4.56,11.2h-1.25L44.71,24.59z M44.28,23.54l-2.43-6.11
			l-2.43,6.11H44.28z"/>
		<path class="st0" d="M49.41,16.1v10.12h6.02v1.09h-7.19V16.1H49.41z"/>
		<path class="st0" d="M67.7,21.12V16.1h1.17v11.2H67.7v-5.09h-7.04v5.09h-1.17V16.1h1.17v5.03H67.7z"/>
		<path class="st0" d="M78.13,24.59H72.4l-1.07,2.71h-1.25l4.56-11.2h1.25l4.56,11.2h-1.25L78.13,24.59z M77.7,23.54l-2.43-6.11
			l-2.43,6.11H77.7z"/>
		<path class="st0" d="M89.99,16.1h1.17v11.2h-1.1L82.83,18v9.3h-1.17V16.1h1.1l7.22,9.3V16.1z"/>
		<path class="st0" d="M92.87,21.7c0-3.38,1.67-5.79,5.46-5.79c2.66,0,4.43,1.09,4.8,3.31h-1.28c-0.43-1.68-1.65-2.19-3.52-2.19
			c-2.93,0-4.24,1.83-4.24,4.67c0,2.85,1.34,4.67,4.29,4.67c1.54,0,2.79-0.46,3.6-1.18v-2.62h-3.01v-1.09h4.18v4.23
			c-1.07,1.02-2.77,1.79-4.79,1.79C94.56,27.49,92.87,25.08,92.87,21.7z"/>
		<path class="st0" d="M111.68,24.59h-5.73l-1.07,2.71h-1.25l4.56-11.2h1.25L114,27.3h-1.25L111.68,24.59z M111.25,23.54l-2.43-6.11
			l-2.43,6.11H111.25z"/>
		<path class="st0" d="M123.81,27.3h-1.22l-0.21-1.49c-0.35-2.51-1.36-3.22-2.85-3.22h-3.15v4.71h-1.17V16.1h4.98
			c2.21,0,3.41,1.2,3.41,3.17c0,1.52-0.7,2.48-1.89,2.9c0.96,0.51,1.57,1.58,1.86,3.54L123.81,27.3z M116.39,21.51h3.7
			c1.52,0,2.3-0.85,2.3-2.16s-0.78-2.16-2.3-2.16h-3.7V21.51z"/>
	</g>
</g>
</svg>
